<svg width="141" height="24" viewBox="0 0 141 24" fill="none" xmlns="http://www.w3.org/2000/svg">
<path d="M0 4.75901V9.4166H14.8937L10.6307 5.1632C10.0723 4.60609 9.31601 4.29326 8.52753 4.29326H0.46543C0.20838 4.29326 0 4.50178 0 4.75901Z" fill="#18181B"/>
<path d="M0 9.64948V14.3071C0 14.5643 0.20838 14.7728 0.46543 14.7728H9.77402L7.28688 10.9915C6.73589 10.1538 5.80089 9.64948 4.79873 9.64948H0Z" fill="#18181B"/>
<path d="M24.6678 19.6633V15.0057H9.77402L14.0371 19.2591C14.5954 19.8162 15.3518 20.129 16.1402 20.129H24.2023C24.4594 20.129 24.6678 19.9205 24.6678 19.6633Z" fill="#18181B"/>
<path d="M24.6678 14.7728V10.1152C24.6678 9.858 24.4594 9.64948 24.2023 9.64948H14.8937L17.3809 13.4308C17.9319 14.2685 18.8669 14.7728 19.869 14.7728H24.6678Z" fill="#18181B"/>
<path d="M133.935 20.1205C132.427 20.1205 131.118 19.8 130.006 19.159C128.895 18.4991 128.038 17.5753 127.435 16.3874C126.832 15.1996 126.53 13.8139 126.53 12.2301C126.53 10.6464 126.832 9.27005 127.435 8.1011C128.038 6.91329 128.885 5.98945 129.978 5.32955C131.09 4.66966 132.38 4.33972 133.85 4.33972C135.282 4.33972 136.535 4.66024 137.609 5.30127C138.701 5.94231 139.54 6.86616 140.124 8.07282C140.708 9.27948 141 10.7312 141 12.4281V13.2483H130.289C130.364 14.568 130.722 15.5673 131.363 16.246C132.022 16.9059 132.889 17.2359 133.963 17.2359C134.773 17.2359 135.442 17.0568 135.97 16.6985C136.516 16.3215 136.893 15.803 137.1 15.1431L140.802 15.3693C140.388 16.8399 139.568 17.9995 138.343 18.8479C137.138 19.6963 135.668 20.1205 133.935 20.1205ZM130.289 10.8161H137.27C137.194 9.59057 136.846 8.68557 136.224 8.1011C135.602 7.49777 134.811 7.1961 133.85 7.1961C132.889 7.1961 132.088 7.5072 131.448 8.12938C130.826 8.75156 130.44 9.64713 130.289 10.8161Z" fill="#18181B"/>
<path d="M92.8335 20.1206C91.7385 20.1206 90.8606 19.8372 90.1998 19.2704C89.5391 18.7036 89.2087 17.7968 89.2087 16.5499V0H92.8335V16.1815C92.8335 16.5593 92.9279 16.8427 93.1167 17.0316C93.3244 17.2206 93.6075 17.315 93.9662 17.315H95.0707V20.1206H92.8335Z" fill="#18181B"/>
<path d="M101.233 20.1205C99.6505 20.1205 98.3787 19.7623 97.4178 19.0459C96.457 18.3106 95.9765 17.2924 95.9765 15.9915C95.9765 14.6906 96.3816 13.6725 97.1917 12.9372C98.0019 12.2019 99.236 11.6739 100.894 11.3534L105.896 10.3636C105.896 9.2889 105.651 8.48761 105.161 7.95969C104.672 7.41293 103.946 7.13954 102.985 7.13954C102.119 7.13954 101.431 7.34694 100.922 7.76173C100.432 8.15766 100.093 8.73271 99.9048 9.48687L96.2309 9.31718C96.5323 7.71459 97.2671 6.48908 98.4352 5.64065C99.6034 4.77336 101.12 4.33972 102.985 4.33972C105.133 4.33972 106.753 4.88649 107.846 5.98002C108.958 7.0547 109.514 8.60073 109.514 10.6181V16.1046C109.514 16.5006 109.58 16.774 109.711 16.9248C109.862 17.0756 110.079 17.151 110.361 17.151H110.842V19.7812C110.729 19.8189 110.54 19.8472 110.277 19.866C110.032 19.8849 109.777 19.8943 109.514 19.8943C108.892 19.8943 108.336 19.8 107.846 19.6115C107.356 19.4041 106.98 19.0553 106.716 18.5651C106.452 18.056 106.32 17.3679 106.32 16.5006L106.631 16.7268C106.48 17.3867 106.151 17.9806 105.642 18.5085C105.152 19.0176 104.53 19.4135 103.777 19.6963C103.023 19.9791 102.175 20.1205 101.233 20.1205ZM101.968 17.4904C102.778 17.4904 103.475 17.3301 104.059 17.0096C104.643 16.6891 105.095 16.246 105.416 15.6804C105.736 15.1148 105.896 14.4455 105.896 13.6725V12.824L101.996 13.6159C101.186 13.7856 100.602 14.0401 100.244 14.3795C99.9048 14.7 99.7352 15.1242 99.7352 15.6521C99.7352 16.2366 99.9237 16.6891 100.3 17.0096C100.696 17.3301 101.252 17.4904 101.968 17.4904Z" fill="#18181B"/>
<path d="M112.14 20.1484V4.68716H115.497L115.641 9.03019L115.207 8.85647C115.362 7.77554 115.68 6.90693 116.162 6.25065C116.644 5.59437 117.233 5.11181 117.927 4.80297C118.622 4.49414 119.383 4.33972 120.213 4.33972C121.351 4.33972 122.306 4.59065 123.077 5.09251C123.868 5.59437 124.466 6.28926 124.871 7.17717C125.276 8.04577 125.479 9.05914 125.479 10.2173V20.1484H121.775V11.4044C121.775 10.5358 121.688 9.80229 121.515 9.20391C121.341 8.60554 121.052 8.15193 120.647 7.8431C120.261 7.51496 119.74 7.35089 119.084 7.35089C118.101 7.35089 117.31 7.69833 116.712 8.39321C116.133 9.0881 115.844 10.0918 115.844 11.4044V20.1484H112.14Z" fill="#18181B"/>
<path d="M80.8434 20.1205C79.3361 20.1205 78.0267 19.8 76.9151 19.159C75.8035 18.4991 74.9462 17.5753 74.3433 16.3874C73.7404 15.1996 73.439 13.8139 73.439 12.2301C73.439 10.6464 73.7404 9.27005 74.3433 8.1011C74.9462 6.91329 75.794 5.98945 76.8868 5.32955C77.9984 4.66966 79.289 4.33972 80.7586 4.33972C82.1905 4.33972 83.4434 4.66024 84.5173 5.30127C85.6101 5.94231 86.4485 6.86616 87.0325 8.07282C87.6166 9.27948 87.9086 10.7312 87.9086 12.4281V13.2483H77.1977C77.273 14.568 77.631 15.5673 78.2716 16.246C78.931 16.9059 79.7977 17.2359 80.8716 17.2359C81.6818 17.2359 82.3506 17.0568 82.8782 16.6985C83.4245 16.3215 83.8014 15.803 84.0086 15.1431L87.7108 15.3693C87.2963 16.8399 86.4767 17.9995 85.2521 18.8479C84.0463 19.6963 82.5767 20.1205 80.8434 20.1205ZM77.1977 10.8161H84.1782C84.1028 9.59057 83.7543 8.68557 83.1325 8.1011C82.5108 7.49777 81.7195 7.1961 80.7586 7.1961C79.7977 7.1961 78.997 7.5072 78.3564 8.12938C77.7346 8.75156 77.3484 9.64713 77.1977 10.8161Z" fill="#18181B"/>
<path d="M47.5504 20.1205C45.9677 20.1205 44.696 19.7623 43.7351 19.0459C42.7742 18.3106 42.2938 17.2924 42.2938 15.9915C42.2938 14.6906 42.6989 13.6725 43.509 12.9372C44.3192 12.2019 45.5533 11.6739 47.2112 11.3534L52.2135 10.3636C52.2135 9.2889 51.9685 8.48761 51.4787 7.95969C50.9888 7.41293 50.2634 7.13954 49.3026 7.13954C48.4359 7.13954 47.7482 7.34694 47.2395 7.76173C46.7496 8.15766 46.4105 8.73271 46.2221 9.48687L42.5482 9.31718C42.8496 7.71459 43.5844 6.48908 44.7525 5.64065C45.9206 4.77336 47.4373 4.33972 49.3026 4.33972C51.4504 4.33972 53.0707 4.88649 54.1635 5.98002C55.2751 7.0547 55.8309 8.60073 55.8309 10.6181V16.1046C55.8309 16.5006 55.8968 16.774 56.0287 16.9248C56.1794 17.0756 56.3961 17.151 56.6787 17.151H57.1591V19.7812C57.0461 19.8189 56.8577 19.8472 56.5939 19.866C56.349 19.8849 56.0946 19.8943 55.8309 19.8943C55.2091 19.8943 54.6533 19.8 54.1635 19.6115C53.6736 19.4041 53.2968 19.0553 53.033 18.5651C52.7693 18.056 52.6374 17.3679 52.6374 16.5006L52.9482 16.7268C52.7975 17.3867 52.4678 17.9806 51.9591 18.5085C51.4692 19.0176 50.8475 19.4135 50.0939 19.6963C49.3402 19.9791 48.4924 20.1205 47.5504 20.1205ZM48.2852 17.4904C49.0953 17.4904 49.7924 17.3301 50.3765 17.0096C50.9605 16.6891 51.4127 16.246 51.733 15.6804C52.0533 15.1148 52.2135 14.4455 52.2135 13.6725V12.824L48.3134 13.6159C47.5033 13.7856 46.9192 14.0401 46.5612 14.3795C46.2221 14.7 46.0525 15.1242 46.0525 15.6521C46.0525 16.2366 46.2409 16.6891 46.6178 17.0096C47.0134 17.3301 47.5692 17.4904 48.2852 17.4904Z" fill="#18181B"/>
<path d="M65.102 20.1205C63.5947 20.1205 62.2853 19.8 61.1737 19.159C60.0621 18.4991 59.1954 17.5753 58.5736 16.3874C57.9707 15.1996 57.6693 13.8139 57.6693 12.2301C57.6693 10.6464 57.9707 9.27005 58.5736 8.1011C59.1954 6.91329 60.0621 5.98945 61.1737 5.32955C62.2853 4.66966 63.5947 4.33972 65.102 4.33972C66.3831 4.33972 67.523 4.56597 68.5216 5.01846C69.5201 5.47096 70.3303 6.12142 70.952 6.96986C71.5926 7.79943 71.9882 8.81755 72.139 10.0242L68.4085 10.2222C68.2578 9.26062 67.881 8.53474 67.2781 8.04454C66.694 7.53548 65.9686 7.28095 65.102 7.28095C63.9338 7.28095 63.0295 7.72402 62.3889 8.61016C61.7483 9.47744 61.428 10.6841 61.428 12.2301C61.428 13.795 61.7483 15.0111 62.3889 15.8784C63.0295 16.7457 63.9338 17.1793 65.102 17.1793C65.9875 17.1793 66.7223 16.9248 67.3063 16.4157C67.9092 15.9067 68.2766 15.1148 68.4085 14.0401L72.139 14.2098C71.9882 15.4165 71.602 16.4629 70.9803 17.349C70.3585 18.2351 69.5484 18.9233 68.5498 19.4135C67.5513 19.8849 66.402 20.1205 65.102 20.1205Z" fill="#18181B"/>
<path d="M26.9184 24V4.67869H30.3904L30.4751 7.89891L30.1081 7.72942C30.4845 6.61835 31.0961 5.78034 31.9429 5.21539C32.8085 4.63161 33.8153 4.33972 34.9633 4.33972C36.3935 4.33972 37.579 4.69752 38.5199 5.41312C39.4797 6.12873 40.1948 7.07973 40.6652 8.26612C41.1357 9.45252 41.3709 10.7707 41.3709 12.2208C41.3709 13.6708 41.1263 14.989 40.637 16.1754C40.1665 17.3618 39.4514 18.3128 38.4917 19.0284C37.5508 19.744 36.3652 20.1018 34.935 20.1018C34.1823 20.1018 33.4766 19.97 32.818 19.7064C32.1781 19.4427 31.623 19.0661 31.1525 18.5765C30.7009 18.0869 30.381 17.5125 30.1928 16.8534L30.5315 16.5709V24H26.9184ZM34.0882 17.1641C35.1797 17.1641 36.0359 16.731 36.6569 15.8647C37.2967 14.9796 37.6166 13.765 37.6166 12.2208C37.6166 10.6766 37.2967 9.47135 36.6569 8.6051C36.0359 7.72001 35.1797 7.27746 34.0882 7.27746C33.3543 7.27746 32.7239 7.46578 32.1969 7.84241C31.67 8.20021 31.256 8.74633 30.9549 9.48077C30.6727 10.2152 30.5315 11.1285 30.5315 12.2208C30.5315 13.313 30.6727 14.2264 30.9549 14.9608C31.2372 15.6952 31.6418 16.2508 32.1687 16.6274C32.7145 16.9852 33.3543 17.1641 34.0882 17.1641Z" fill="#18181B"/>
</svg>
