<svg width="33" height="22" viewBox="0 0 33 22" fill="none" xmlns="http://www.w3.org/2000/svg">
<path d="M0 1.67457V7.71231H19.3208L13.7905 2.19852C13.0662 1.47634 12.0851 1.0708 11.0622 1.0708H0.603774C0.270319 1.0708 0 1.34112 0 1.67457Z" fill="#18181B"/>
<path d="M0 8.0142V14.0519C0 14.3854 0.270319 14.6557 0.603774 14.6557H12.6792L9.45282 9.75385C8.73806 8.66792 7.52515 8.0142 6.2251 8.0142H0Z" fill="#18181B"/>
<path d="M32 20.9953V14.9576H12.6792L18.2095 20.4714C18.9338 21.1936 19.9149 21.5991 20.9378 21.5991H31.3962C31.7297 21.5991 32 21.3288 32 20.9953Z" fill="#18181B"/>
<path d="M32 14.6557V8.61797C32 8.28452 31.7297 8.0142 31.3962 8.0142H19.3208L22.5472 12.9161C23.2619 14.002 24.4749 14.6557 25.7749 14.6557H32Z" fill="#18181B"/>
</svg>
